<?xml version="1.0" standalone="no"?>
<!DOCTYPE svg PUBLIC "-//W3C//DTD SVG 20010904//EN"
 "http://www.w3.org/TR/2001/REC-SVG-20010904/DTD/svg10.dtd">
<svg version="1.0" xmlns="http://www.w3.org/2000/svg"
 width="100.000000pt" height="100.000000pt" viewBox="0 0 100.000000 100.000000"
 preserveAspectRatio="xMidYMid meet">
<metadata>
Created by potrace 1.11, written by Peter Selinger 2001-2013
</metadata>
<g transform="translate(0.000000,100.000000) scale(0.100000,-0.100000)"
fill="#000000" stroke="none">
<path d="M217 882 c-14 -15 -17 -47 -19 -182 l-3 -164 -37 -1 c-42 -1 -46 7
-23 51 16 31 19 164 4 164 -5 0 -10 -28 -10 -62 -1 -35 -3 -55 -6 -45 -2 9 -9
17 -14 17 -6 0 -7 -4 -4 -10 3 -5 2 -10 -4 -10 -5 0 -12 26 -14 58 l-3 57 -2
-58 c-1 -32 -6 -56 -10 -53 -4 2 -7 28 -6 55 2 30 -1 49 -7 46 -15 -10 -11
-133 6 -166 17 -32 12 -54 -11 -45 -18 7 -54 -28 -54 -53 0 -26 26 -51 54 -51
22 0 22 -3 22 -90 -1 -58 3 -93 12 -102 24 -24 36 8 36 102 l0 90 38 0 38 0 0
-153 c0 -136 2 -156 18 -170 23 -21 42 -21 68 -3 17 13 19 28 20 168 l1 153
206 3 207 2 0 -153 c0 -136 2 -156 18 -170 23 -21 42 -21 68 -3 17 13 19 28
21 148 1 73 2 143 2 156 1 18 7 22 36 22 36 0 36 0 31 -37 -16 -112 -16 -159
-1 -178 14 -19 16 -19 28 -3 9 12 13 45 12 105 -2 104 -1 109 31 117 46 12 40
91 -8 98 -22 3 -22 7 -23 122 0 74 -4 121 -11 123 -5 2 -21 -16 -34 -39 -20
-35 -24 -58 -25 -123 0 -68 -3 -80 -18 -83 -11 -2 -17 3 -18 15 0 10 -1 86 -2
169 -2 161 -9 184 -52 184 -48 0 -54 -23 -57 -201 l-3 -164 -202 -1 -203 0 -1
30 c-1 17 -1 90 -1 161 0 142 -10 175 -52 175 -12 0 -30 -8 -39 -18z"/>
<path d="M109 758 c-7 -29 -8 -88 -1 -88 5 0 9 20 9 45 1 25 -1 45 -3 45 -2 0
-4 -1 -5 -2z"/>
</g>
</svg>
